# xmcd
#
# Track frame offsets: 
#        150
#        13875
#        31350
#        48900
#        62087
#        80290
#        94367
#        109140
#        124300
#        137572
#        151577
#        170677
#        190592
#        208850
#        227160
#
# Disc length: 3285 seconds
#
# Revision: 0
# Processed by: cddbd v1.5.2PL0 Copyright (c) Steve Scherf et al.
# Submitted via: ExactAudioCopy v0.99pb5
#
DISCID=c80cd30f
DTITLE=Abba - Arrival
DYEAR=1976
DGENRE=Classical
TTITLE0=When I Kissed the Teacher
TTITLE1=Dancing Queen
TTITLE2=My Love, My Life
TTITLE3=Dum Dum Diddle
TTITLE4=Knowing Me, Knowing You
TTITLE5=Money, Money, Money
TTITLE6=That's Me
TTITLE7=Why Did It Have to Be Me
TTITLE8=Tiger
TTITLE9=Arrival
TTITLE10=Fernando
TTITLE11=Happy Hawaii
TTITLE12=La Reina Del Baile
TTITLE13=Conociendome, Conociendote
TTITLE14=Fernando (Spanish Version)
EXTD=
EXTT0=
EXTT1=
EXTT2=
EXTT3=
EXTT4=
EXTT5=
EXTT6=
EXTT7=
EXTT8=
EXTT9=
EXTT10=
EXTT11=
EXTT12=
EXTT13=
EXTT14=
PLAYORDER=
